<svg width="20" height="20" viewBox="0 0 20 20" fill="none" xmlns="http://www.w3.org/2000/svg">
<g clip-path="url(#clip0_913_7561)">
<path d="M9.98935 18C11.0347 18 12.0694 17.7867 13.04 17.392C17.1147 15.696 19.056 11.0133 17.36 6.94933C16.1334 3.94133 13.2214 2 9.98935 2C8.93335 2 7.90935 2.21333 6.93868 2.608C4.95469 3.42933 3.42935 4.976 2.61869 6.93867C1.79735 8.92267 1.79735 11.088 2.61869 13.0507C3.83469 16.0587 6.74669 18 9.98935 18ZM12.7094 16.2507C12.9974 15.9093 13.2427 15.504 13.488 15.0453C13.7547 14.5333 14 13.9787 14.192 13.4027H15.8667C15.1627 14.6293 14.0854 15.6427 12.7094 16.2507ZM16.4214 12.2293H14.5334C14.704 11.472 14.8 10.704 14.8 9.97867C14.8 9.232 14.7254 8.47467 14.576 7.74933H16.4214C16.9334 9.25333 16.9014 10.8427 16.4214 12.2293ZM15.8667 6.576H14.2667C14.0534 5.92533 13.7867 5.296 13.488 4.752C13.296 4.41067 13.0827 4.10133 12.88 3.83467C14.1174 4.4 15.1627 5.34933 15.8667 6.576ZM10.576 3.504C11.5467 3.84533 12.464 5.02933 13.0187 6.576H10.576V3.504ZM10.576 7.77067H13.36C13.5307 8.47467 13.6267 9.24267 13.6267 10C13.6267 10.7253 13.5094 11.4827 13.3174 12.2507H10.576V7.77067ZM10.576 13.424H12.9334C12.3574 14.8747 11.504 16.0907 10.576 16.4747V13.424ZM4.10135 13.424H5.77602C5.96802 14 6.21335 14.544 6.48002 15.0667C6.72535 15.5253 6.99202 15.92 7.28002 16.2613C5.94669 15.6747 4.84802 14.704 4.10135 13.424ZM9.39202 16.4747C8.45335 16.0907 7.60002 14.8747 7.03469 13.424H9.39202V16.4747ZM9.39202 12.2293H6.67202C6.48002 11.4827 6.36269 10.704 6.36269 9.97867C6.36269 9.22133 6.45869 8.45333 6.60802 7.74933H9.39202V12.2293ZM9.39202 3.504V6.576H6.96002C7.51469 5.02933 8.42135 3.84533 9.39202 3.504ZM7.10935 3.824C6.89602 4.09067 6.69335 4.4 6.50135 4.74133C6.18135 5.296 5.92535 5.92533 5.72269 6.56533H4.12269C4.78402 5.37067 5.82935 4.42133 7.10935 3.824ZM3.54669 7.77067H5.39202C5.24269 8.496 5.16802 9.25333 5.16802 10C5.16802 10.7253 5.26402 11.4827 5.43469 12.2507H3.54669C3.05602 10.7787 3.05602 9.22133 3.54669 7.77067Z" fill="#444E62"/>
</g>
<defs>
<clipPath id="clip0_913_7561">
<rect width="15.968" height="16" fill="white" transform="translate(2 2)"/>
</clipPath>
</defs>
</svg>
